<?xml version="1.0" standalone="no"?>
<!DOCTYPE svg PUBLIC "-//W3C//DTD SVG 20010904//EN"
 "http://www.w3.org/TR/2001/REC-SVG-20010904/DTD/svg10.dtd">
<svg version="1.0" xmlns="http://www.w3.org/2000/svg"
 width="512.000000pt" height="512.000000pt" viewBox="0 0 512.000000 512.000000"
 preserveAspectRatio="xMidYMid meet">
<metadata>
Created by potrace 1.11, written by Peter Selinger 2001-2013
</metadata>
<g transform="translate(0.000000,512.000000) scale(0.100000,-0.100000)"
fill="#000000" stroke="none">
<path d="M2698 3283 c-14 -49 -67 -227 -118 -398 -50 -170 -103 -348 -116
-395 -165 -564 -268 -908 -275 -922 -5 -9 -5 -19 -1 -22 8 -5 138 -9 212 -7
39 1 28 -25 115 271 58 198 110 375 205 695 114 386 126 426 194 657 30 103
58 192 61 198 4 7 -39 10 -123 10 l-129 0 -25 -87z"/>
<path d="M1934 3302 c-5 -5 -47 -26 -94 -47 -47 -21 -140 -65 -208 -97 -68
-32 -125 -58 -127 -58 -1 0 -64 -29 -139 -65 -75 -36 -138 -65 -140 -65 -2 0
-62 -27 -133 -61 -70 -33 -146 -69 -168 -79 -22 -10 -128 -59 -235 -109 -107
-51 -207 -97 -222 -104 l-27 -12 2 -134 2 -135 135 -63 c74 -34 185 -86 245
-114 61 -29 171 -80 245 -114 74 -34 173 -80 220 -102 108 -51 166 -78 425
-198 116 -53 217 -101 225 -105 14 -7 16 11 15 155 0 90 -3 166 -5 168 -3 3
-156 71 -340 152 -184 81 -357 157 -385 169 -27 13 -132 58 -232 102 -101 43
-183 82 -183 85 0 4 37 23 83 42 110 47 813 356 967 425 37 16 44 19 59 21 32
4 37 30 36 184 0 86 -3 158 -6 161 -3 3 -10 2 -15 -2z"/>
<path d="M3165 3144 c0 -90 3 -165 5 -167 3 -3 267 -116 587 -253 320 -137
579 -252 575 -256 -4 -4 -41 -21 -82 -38 -41 -18 -88 -38 -105 -46 -16 -7
-147 -63 -290 -124 -143 -61 -276 -118 -295 -126 -19 -9 -116 -50 -215 -93
l-180 -77 0 -166 c0 -145 2 -165 15 -158 8 4 40 19 70 33 30 13 114 52 185 85
131 60 188 86 280 127 28 13 86 40 130 60 75 35 131 61 250 115 28 12 92 42
143 66 51 24 95 44 97 44 3 0 42 17 248 113 l97 46 0 139 c0 100 -4 142 -12
149 -11 8 -76 38 -273 128 -27 13 -193 89 -368 169 -174 80 -319 146 -321 146
-2 0 -55 24 -117 53 -63 30 -130 61 -149 70 -19 8 -71 32 -115 52 -44 20 -98
45 -121 55 l-40 18 1 -164z"/>
</g>
</svg>
