<svg xmlns="http://www.w3.org/2000/svg" width="1772" height="1181" viewBox="0 0 1772 1181">
  <defs>
    <style>
      .cls-1, .cls-2, .cls-3 {
        fill-rule: evenodd;
      }

      .cls-2 {
        fill: #ff0101;
      }

      .cls-3 {
        fill: red;
      }
    </style>
  </defs>
  <path id="PSYC" class="cls-1" d="M302.214,709.267l0.132-20.131-40-40.727-0.265,40.464L261.953,709l-0.264,40.262-0.4,60.393,40,40.726,0.265-40.463,0.4-60.392,120.986,0.793L423.2,710.06l0.4-60.594-40.463-.265-80.523-.528-0.264,40.262,80.523,0.528L382.738,709.8l-80.524-.528h0Zm261.438,41.776-0.134,20.332-120.785-.792-0.263,40.262L603.718,811.9l0.263-40.262,0.367-55.964,0.031-4.63-120.987-.793,0.132-20.131,120.987,0.793,0.263-40.261-120.986-.793-40.262-.264-0.264,40.262L442.9,745.822l-0.029,4.429,120.785,0.792h0Zm161.306-8L786,674.993l0.153-23.352-38.852-.255-42.182,47.033-41.562-47.582-38.853-.254-0.153,23.352L684.5,742.373l-0.459,70.055,40.463,0.265,0.456-69.652h0ZM846.078,692.5l-39.6-40.12-1.055,161.047,40.262,0.264,120.785,0.791,0.264-40.261-120.785-.792,0.527-80.523L967.263,693.7l-40-40.525-80.926-.531L846.078,692.5h0Z"/>
  <path id="O" class="cls-2" d="M1118.23,693.519v80.2h-80v-80.2l-40-40v160.2h160.2v-160.2h-120.2v40h80Z"/>
  <path id="DE" class="cls-1" d="M1229.42,654.01h-40v160h160v-120l-40-40h-80Zm80,120h-80v-80h80v80h0Zm100,0v-20h120v-40h-120v-20h120v-40h-160v160h160v-40h-120Z"/>
  <path id="_" data-name="&lt;" class="cls-1" d="M585.179,475.178L800.567,575.244V527.679L637.68,456.332v-0.9l162.887-71.347V336.522L585.179,436.588v38.59Z"/>
  <path id="_2" data-name="/" class="cls-3" d="M865.454,590.356l76.684-259.795H905.946l-76.684,259.8h36.192Z"/>
  <path id="_3" data-name="&gt;" class="cls-1" d="M1185.31,434.916l-214-98.083v47.258l165.407,70.887v0.892L971.313,526.757v47.258l214-98.083V434.916Z"/>
</svg>
